<?xml version="1.0" encoding="UTF-8" standalone="no"?>
<svg
   width="1000"
   height="1000"
   viewBox="0 0 1000 1000"
   fill="none"
   version="1.1"
   id="svg19"
   xmlns="http://www.w3.org/2000/svg"
   xmlns:svg="http://www.w3.org/2000/svg">
  <circle
     style="fill:#0c0c3a;stroke-width:1.23211"
     id="path19"
     cx="500"
     cy="500"
     r="498.34378" />
  <path
     fill-rule="evenodd"
     clip-rule="evenodd"
     d="m 530.69432,209.20725 h 65.26839 c 22.35601,-5.1e-4 41.16497,-9.6e-4 56.56229,1.28008 16.10521,1.33999 31.44646,4.25237 46.01758,11.81344 22.19639,11.51732 40.2452,29.89504 51.55718,52.49886 7.42096,14.83955 10.28103,30.46206 11.59704,46.86277 1.259,15.67905 1.259,34.83341 1.259,57.59943 v 63.04162 c 0,22.76602 0,41.92037 -1.259,57.59989 -1.31601,16.40072 -4.17608,32.02275 -11.59704,46.8623 -11.31198,22.60402 -29.36079,40.9816 -51.55718,52.49929 -14.57112,7.56064 -29.91237,10.47345 -46.01806,11.81321 -15.39684,1.28085 -34.20628,1.28085 -56.56277,1.27991 h -194.9096 c -13.69125,0 -26.04559,-8.36451 -31.34336,-21.22007 -5.29777,-12.85604 -2.50422,-27.69369 7.08697,-37.64264 L 537.75327,386.53409 586.2651,435.03166 482.05374,543.13022 h 112.54687 c 24.07681,0 40.08984,-0.0267 52.38812,-1.04995 11.90158,-0.9901 17.30054,-2.73844 20.69176,-4.49819 9.40685,-4.88016 17.05112,-12.66743 21.84481,-22.24532 1.72934,-3.45345 3.44443,-8.95124 4.41837,-21.07088 1.00245,-12.52348 1.03096,-28.8306 1.03096,-53.34828 v -60.26945 c 0,-24.51817 -0.0284,-40.82481 -1.03096,-53.34876 -0.97394,-12.11916 -2.68903,-17.61695 -4.41837,-21.07088 -4.79369,-9.57789 -12.43796,-17.36515 -21.84481,-22.24532 -3.39122,-1.75975 -8.79018,-3.50762 -20.69176,-4.49771 -12.29828,-1.02335 -28.31131,-1.05044 -52.38812,-1.05044 h -62.53469 c -24.34048,0 -40.54023,0.0276 -52.97391,1.06707 -12.04078,1.00672 -17.48392,2.78452 -20.88702,4.56612 -9.46197,4.9538 -17.12524,12.85319 -21.87427,22.54843 -1.70796,3.48671 -3.38694,9.05101 -4.22881,21.32363 -0.86942,12.6736 -0.6984,29.16934 -0.40143,53.95451 l 0.34063,28.46571 -67.97689,0.84424 -0.35776,-29.86296 c -0.276,-23.02068 -0.50832,-42.37742 0.57864,-58.22465 1.13643,-16.56747 3.84827,-32.36862 11.21222,-47.40154 11.20795,-22.88084 29.29239,-41.5231 51.62323,-53.21463 14.67184,-7.68156 30.1542,-10.63562 46.40811,-11.99469 15.54792,-1.29999 34.55785,-1.29955 57.16566,-1.29903 z"
     fill="url(#paint0_linear_1440_8660)"
     id="path1"
     style="fill:url(#paint0_linear_1440_8660);stroke-width:4.75094" />
  <path
     fill-rule="evenodd"
     clip-rule="evenodd"
     d="m 530.69432,209.20725 h 65.26839 c 22.35601,-5.1e-4 41.16497,-9.6e-4 56.56229,1.28008 16.10521,1.33999 31.44646,4.25237 46.01758,11.81344 22.19639,11.51732 40.2452,29.89504 51.55718,52.49886 7.42096,14.83955 10.28103,30.46206 11.59704,46.86277 1.259,15.67905 1.259,34.83341 1.259,57.59943 v 63.04162 c 0,22.76602 0,41.92037 -1.259,57.59989 -1.31601,16.40072 -4.17608,32.02275 -11.59704,46.8623 -11.31198,22.60402 -29.36079,40.9816 -51.55718,52.49929 -14.57112,7.56064 -29.91237,10.47345 -46.01806,11.81321 -15.39684,1.28085 -34.20628,1.28085 -56.56277,1.27991 h -194.9096 c -13.69125,0 -26.04559,-8.36451 -31.34336,-21.22007 -5.29777,-12.85604 -2.50422,-27.69369 7.08697,-37.64264 L 537.75327,386.53409 586.2651,435.03166 482.05374,543.13022 h 112.54687 c 24.07681,0 40.08984,-0.0267 52.38812,-1.04995 11.90158,-0.9901 17.30054,-2.73844 20.69176,-4.49819 9.40685,-4.88016 17.05112,-12.66743 21.84481,-22.24532 1.72934,-3.45345 3.44443,-8.95124 4.41837,-21.07088 1.00245,-12.52348 1.03096,-28.8306 1.03096,-53.34828 v -60.26945 c 0,-24.51817 -0.0284,-40.82481 -1.03096,-53.34876 -0.97394,-12.11916 -2.68903,-17.61695 -4.41837,-21.07088 -4.79369,-9.57789 -12.43796,-17.36515 -21.84481,-22.24532 -3.39122,-1.75975 -8.79018,-3.50762 -20.69176,-4.49771 -12.29828,-1.02335 -28.31131,-1.05044 -52.38812,-1.05044 h -62.53469 c -24.34048,0 -40.54023,0.0276 -52.97391,1.06707 -12.04078,1.00672 -17.48392,2.78452 -20.88702,4.56612 -9.46197,4.9538 -17.12524,12.85319 -21.87427,22.54843 -1.70796,3.48671 -3.38694,9.05101 -4.22881,21.32363 -0.86942,12.6736 -0.6984,29.16934 -0.40143,53.95451 l 0.34063,28.46571 -67.97689,0.84424 -0.35776,-29.86296 c -0.276,-23.02068 -0.50832,-42.37742 0.57864,-58.22465 1.13643,-16.56747 3.84827,-32.36862 11.21222,-47.40154 11.20795,-22.88084 29.29239,-41.5231 51.62323,-53.21463 14.67184,-7.68156 30.1542,-10.63562 46.40811,-11.99469 15.54792,-1.29999 34.55785,-1.29955 57.16566,-1.29903 z"
     fill="url(#paint1_radial_1440_8660)"
     id="path2"
     style="fill:url(#paint1_radial_1440_8660);stroke-width:4.75094" />
  <path
     fill-rule="evenodd"
     clip-rule="evenodd"
     d="m 530.69432,209.20725 h 65.26839 c 22.35601,-5.1e-4 41.16497,-9.6e-4 56.56229,1.28008 16.10521,1.33999 31.44646,4.25237 46.01758,11.81344 22.19639,11.51732 40.2452,29.89504 51.55718,52.49886 7.42096,14.83955 10.28103,30.46206 11.59704,46.86277 1.259,15.67905 1.259,34.83341 1.259,57.59943 v 63.04162 c 0,22.76602 0,41.92037 -1.259,57.59989 -1.31601,16.40072 -4.17608,32.02275 -11.59704,46.8623 -11.31198,22.60402 -29.36079,40.9816 -51.55718,52.49929 -14.57112,7.56064 -29.91237,10.47345 -46.01806,11.81321 -15.39684,1.28085 -34.20628,1.28085 -56.56277,1.27991 h -194.9096 c -13.69125,0 -26.04559,-8.36451 -31.34336,-21.22007 -5.29777,-12.85604 -2.50422,-27.69369 7.08697,-37.64264 L 537.75327,386.53409 586.2651,435.03166 482.05374,543.13022 h 112.54687 c 24.07681,0 40.08984,-0.0267 52.38812,-1.04995 11.90158,-0.9901 17.30054,-2.73844 20.69176,-4.49819 9.40685,-4.88016 17.05112,-12.66743 21.84481,-22.24532 1.72934,-3.45345 3.44443,-8.95124 4.41837,-21.07088 1.00245,-12.52348 1.03096,-28.8306 1.03096,-53.34828 v -60.26945 c 0,-24.51817 -0.0284,-40.82481 -1.03096,-53.34876 -0.97394,-12.11916 -2.68903,-17.61695 -4.41837,-21.07088 -4.79369,-9.57789 -12.43796,-17.36515 -21.84481,-22.24532 -3.39122,-1.75975 -8.79018,-3.50762 -20.69176,-4.49771 -12.29828,-1.02335 -28.31131,-1.05044 -52.38812,-1.05044 h -62.53469 c -24.34048,0 -40.54023,0.0276 -52.97391,1.06707 -12.04078,1.00672 -17.48392,2.78452 -20.88702,4.56612 -9.46197,4.9538 -17.12524,12.85319 -21.87427,22.54843 -1.70796,3.48671 -3.38694,9.05101 -4.22881,21.32363 -0.86942,12.6736 -0.6984,29.16934 -0.40143,53.95451 l 0.34063,28.46571 -67.97689,0.84424 -0.35776,-29.86296 c -0.276,-23.02068 -0.50832,-42.37742 0.57864,-58.22465 1.13643,-16.56747 3.84827,-32.36862 11.21222,-47.40154 11.20795,-22.88084 29.29239,-41.5231 51.62323,-53.21463 14.67184,-7.68156 30.1542,-10.63562 46.40811,-11.99469 15.54792,-1.29999 34.55785,-1.29955 57.16566,-1.29903 z"
     fill="url(#paint2_radial_1440_8660)"
     id="path3"
     style="fill:url(#paint2_radial_1440_8660);stroke-width:4.75094" />
  <path
     fill-rule="evenodd"
     clip-rule="evenodd"
     d="m 530.69432,209.20725 h 65.26839 c 22.35601,-5.1e-4 41.16497,-9.6e-4 56.56229,1.28008 16.10521,1.33999 31.44646,4.25237 46.01758,11.81344 22.19639,11.51732 40.2452,29.89504 51.55718,52.49886 7.42096,14.83955 10.28103,30.46206 11.59704,46.86277 1.259,15.67905 1.259,34.83341 1.259,57.59943 v 63.04162 c 0,22.76602 0,41.92037 -1.259,57.59989 -1.31601,16.40072 -4.17608,32.02275 -11.59704,46.8623 -11.31198,22.60402 -29.36079,40.9816 -51.55718,52.49929 -14.57112,7.56064 -29.91237,10.47345 -46.01806,11.81321 -15.39684,1.28085 -34.20628,1.28085 -56.56277,1.27991 h -194.9096 c -13.69125,0 -26.04559,-8.36451 -31.34336,-21.22007 -5.29777,-12.85604 -2.50422,-27.69369 7.08697,-37.64264 L 537.75327,386.53409 586.2651,435.03166 482.05374,543.13022 h 112.54687 c 24.07681,0 40.08984,-0.0267 52.38812,-1.04995 11.90158,-0.9901 17.30054,-2.73844 20.69176,-4.49819 9.40685,-4.88016 17.05112,-12.66743 21.84481,-22.24532 1.72934,-3.45345 3.44443,-8.95124 4.41837,-21.07088 1.00245,-12.52348 1.03096,-28.8306 1.03096,-53.34828 v -60.26945 c 0,-24.51817 -0.0284,-40.82481 -1.03096,-53.34876 -0.97394,-12.11916 -2.68903,-17.61695 -4.41837,-21.07088 -4.79369,-9.57789 -12.43796,-17.36515 -21.84481,-22.24532 -3.39122,-1.75975 -8.79018,-3.50762 -20.69176,-4.49771 -12.29828,-1.02335 -28.31131,-1.05044 -52.38812,-1.05044 h -62.53469 c -24.34048,0 -40.54023,0.0276 -52.97391,1.06707 -12.04078,1.00672 -17.48392,2.78452 -20.88702,4.56612 -9.46197,4.9538 -17.12524,12.85319 -21.87427,22.54843 -1.70796,3.48671 -3.38694,9.05101 -4.22881,21.32363 -0.86942,12.6736 -0.6984,29.16934 -0.40143,53.95451 l 0.34063,28.46571 -67.97689,0.84424 -0.35776,-29.86296 c -0.276,-23.02068 -0.50832,-42.37742 0.57864,-58.22465 1.13643,-16.56747 3.84827,-32.36862 11.21222,-47.40154 11.20795,-22.88084 29.29239,-41.5231 51.62323,-53.21463 14.67184,-7.68156 30.1542,-10.63562 46.40811,-11.99469 15.54792,-1.29999 34.55785,-1.29955 57.16566,-1.29903 z"
     fill="url(#paint3_radial_1440_8660)"
     id="path4"
     style="fill:url(#paint3_radial_1440_8660);stroke-width:4.75094" />
  <path
     fill-rule="evenodd"
     clip-rule="evenodd"
     d="m 316.04742,709.0439 c 12.2978,1.02145 28.31131,1.04996 52.38812,1.04996 h 63.58322 c 21.95409,0 36.55467,-0.0234 47.80156,-0.87892 10.90009,-0.83143 15.89854,-2.29471 19.02847,-3.75799 10.87679,-5.0835 19.60236,-13.96776 24.5918,-25.04363 1.43621,-3.1874 2.87717,-8.27756 3.691,-19.37765 0.83949,-11.45261 0.86182,-26.32114 0.86182,-48.67762 h 67.98165 v 1.26327 c 4.7e-4,20.76112 9.5e-4,38.23032 -1.05043,52.56865 -1.09795,14.98113 -3.48102,29.2995 -9.69334,43.08673 -11.7752,26.13966 -32.36814,47.1103 -58.03651,59.10167 -13.54208,6.32825 -27.60152,8.75122 -42.31328,9.87244 -14.08035,1.06897 -31.23456,1.06897 -51.62226,1.06897 h -66.1858 c -22.35601,0 -41.16497,0 -56.56229,-1.27801 -16.1052,-1.33976 -31.44645,-4.25208 -46.01853,-11.81558 -22.19738,-11.51628 -40.24429,-29.8929 -51.55433,-52.49786 -7.425,-14.84194 -10.28493,-30.46301 -11.60083,-46.86373 -1.25798,-15.67904 -1.25751,-34.8334 -1.257,-57.59942 v -63.04162 c -5.1e-4,-22.76602 -9.8e-4,-41.92037 1.257,-57.5999 1.3159,-16.40071 4.17588,-32.02274 11.60083,-46.8623 11.31004,-22.60401 29.35695,-40.98159 51.55433,-52.49928 14.57208,-7.56065 29.91333,-10.47297 46.01853,-11.81321 15.39732,-1.28086 34.20676,-1.28038 56.56325,-1.27991 H 561.984 c 18.77286,0 33.99106,15.49709 33.99106,34.61391 0,19.11683 -15.2182,34.61391 -33.99106,34.61391 H 368.43554 c -24.07681,0 -40.08984,0.0267 -52.38812,1.04996 -11.90158,0.99057 -17.30054,2.73844 -20.69176,4.49819 -9.40543,4.88016 -17.05254,12.66743 -21.84528,22.24532 -1.72792,3.45345 -3.44443,8.95124 -4.41695,21.07087 -1.00483,12.52348 -1.03096,28.8306 -1.03096,53.34829 v 60.26944 c 0,24.51818 0.0259,40.82482 1.03096,53.34876 0.97252,12.11917 2.68903,17.61696 4.41695,21.07089 4.79274,9.57552 12.43985,17.36705 21.84528,22.24627 3.39122,1.75784 8.79018,3.50618 20.69176,4.49913 z"
     fill="url(#paint4_linear_1440_8660)"
     id="path5"
     style="fill:url(#paint4_linear_1440_8660);stroke-width:4.75094" />
  <path
     fill-rule="evenodd"
     clip-rule="evenodd"
     d="m 316.04742,709.0439 c 12.2978,1.02145 28.31131,1.04996 52.38812,1.04996 h 63.58322 c 21.95409,0 36.55467,-0.0234 47.80156,-0.87892 10.90009,-0.83143 15.89854,-2.29471 19.02847,-3.75799 10.87679,-5.0835 19.60236,-13.96776 24.5918,-25.04363 1.43621,-3.1874 2.87717,-8.27756 3.691,-19.37765 0.83949,-11.45261 0.86182,-26.32114 0.86182,-48.67762 h 67.98165 v 1.26327 c 4.7e-4,20.76112 9.5e-4,38.23032 -1.05043,52.56865 -1.09795,14.98113 -3.48102,29.2995 -9.69334,43.08673 -11.7752,26.13966 -32.36814,47.1103 -58.03651,59.10167 -13.54208,6.32825 -27.60152,8.75122 -42.31328,9.87244 -14.08035,1.06897 -31.23456,1.06897 -51.62226,1.06897 h -66.1858 c -22.35601,0 -41.16497,0 -56.56229,-1.27801 -16.1052,-1.33976 -31.44645,-4.25208 -46.01853,-11.81558 -22.19738,-11.51628 -40.24429,-29.8929 -51.55433,-52.49786 -7.425,-14.84194 -10.28493,-30.46301 -11.60083,-46.86373 -1.25798,-15.67904 -1.25751,-34.8334 -1.257,-57.59942 v -63.04162 c -5.1e-4,-22.76602 -9.8e-4,-41.92037 1.257,-57.5999 1.3159,-16.40071 4.17588,-32.02274 11.60083,-46.8623 11.31004,-22.60401 29.35695,-40.98159 51.55433,-52.49928 14.57208,-7.56065 29.91333,-10.47297 46.01853,-11.81321 15.39732,-1.28086 34.20676,-1.28038 56.56325,-1.27991 H 561.984 c 18.77286,0 33.99106,15.49709 33.99106,34.61391 0,19.11683 -15.2182,34.61391 -33.99106,34.61391 H 368.43554 c -24.07681,0 -40.08984,0.0267 -52.38812,1.04996 -11.90158,0.99057 -17.30054,2.73844 -20.69176,4.49819 -9.40543,4.88016 -17.05254,12.66743 -21.84528,22.24532 -1.72792,3.45345 -3.44443,8.95124 -4.41695,21.07087 -1.00483,12.52348 -1.03096,28.8306 -1.03096,53.34829 v 60.26944 c 0,24.51818 0.0259,40.82482 1.03096,53.34876 0.97252,12.11917 2.68903,17.61696 4.41695,21.07089 4.79274,9.57552 12.43985,17.36705 21.84528,22.24627 3.39122,1.75784 8.79018,3.50618 20.69176,4.49913 z"
     fill="url(#paint5_radial_1440_8660)"
     id="path6"
     style="fill:url(#paint5_radial_1440_8660);stroke-width:4.75094" />
  <defs
     id="defs19">
    <linearGradient
       id="paint0_linear_1440_8660"
       x1="56.452702"
       y1="84.198303"
       x2="57.424801"
       y2="-0.107893"
       gradientUnits="userSpaceOnUse"
       gradientTransform="matrix(4.7509379,0,0,4.7509379,200.08843,209.20723)">
      <stop
         offset="0.43118"
         stop-color="#498FFD"
         id="stop6" />
      <stop
         offset="1"
         stop-color="#16D1D6"
         id="stop7" />
    </linearGradient>
    <radialGradient
       id="paint1_radial_1440_8660"
       cx="0"
       cy="0"
       r="1"
       gradientUnits="userSpaceOnUse"
       gradientTransform="matrix(247.46034,-69.489465,69.832407,248.68161,358.76026,331.26975)">
      <stop
         stop-color="#18CFD7"
         id="stop8" />
      <stop
         offset="1"
         stop-color="#18CFD7"
         stop-opacity="0"
         id="stop9" />
    </radialGradient>
    <radialGradient
       id="paint2_radial_1440_8660"
       cx="0"
       cy="0"
       r="1"
       gradientUnits="userSpaceOnUse"
       gradientTransform="matrix(-85.191249,44.963766,-45.087065,-85.424859,508.85902,445.72318)">
      <stop
         stop-color="#4990FE"
         id="stop10" />
      <stop
         offset="0.353962"
         stop-color="#4990FE"
         id="stop11" />
      <stop
         offset="1"
         stop-color="#4990FE"
         stop-opacity="0"
         id="stop12" />
    </radialGradient>
    <radialGradient
       id="paint3_radial_1440_8660"
       cx="0"
       cy="0"
       r="1"
       gradientUnits="userSpaceOnUse"
       gradientTransform="matrix(121.70184,-126.71634,126.48333,121.47805,391.21391,576.52694)">
      <stop
         stop-color="#4990FE"
         id="stop13" />
      <stop
         offset="0.405688"
         stop-color="#4990FE"
         id="stop14" />
      <stop
         offset="1"
         stop-color="#4990FE"
         stop-opacity="0"
         id="stop15" />
    </radialGradient>
    <linearGradient
       id="paint4_linear_1440_8660"
       x1="83.7714"
       y1="120.334"
       x2="84.084"
       y2="34.297199"
       gradientUnits="userSpaceOnUse"
       gradientTransform="matrix(4.7509379,0,0,4.7509379,200.08843,209.20723)">
      <stop
         stop-color="#2950FF"
         id="stop16" />
      <stop
         offset="0.821717"
         stop-color="#498FFD"
         id="stop17" />
    </linearGradient>
    <radialGradient
       id="paint5_radial_1440_8660"
       cx="0"
       cy="0"
       r="1"
       gradientUnits="userSpaceOnUse"
       gradientTransform="matrix(-109.5326,134.89043,-133.26727,-108.21458,598.08115,609.22765)">
      <stop
         offset="0.337169"
         stop-color="#2950FF"
         id="stop18" />
      <stop
         offset="0.792226"
         stop-color="#2950FF"
         stop-opacity="0"
         id="stop19" />
    </radialGradient>
  </defs>
</svg>
