<?xml version="1.0" encoding="UTF-8" standalone="no"?>
<!DOCTYPE svg PUBLIC "-//W3C//DTD SVG 1.1//EN" "http://www.w3.org/Graphics/SVG/1.1/DTD/svg11.dtd">
<svg width="100%" height="100%" viewBox="0 0 1200 1200" version="1.1" xmlns="http://www.w3.org/2000/svg" xmlns:xlink="http://www.w3.org/1999/xlink" xml:space="preserve" xmlns:serif="http://www.serif.com/" style="fill-rule:evenodd;clip-rule:evenodd;stroke-linejoin:round;stroke-miterlimit:2;">
    <g>
        <clipPath id="_clip1">
            <rect x="0" y="0" width="1200" height="1200"/>
        </clipPath>
        <g clip-path="url(#_clip1)">
            <g>
                <clipPath id="_clip2">
                    <rect x="90" y="2" width="1023.2" height="1200"/>
                </clipPath>
                <g clip-path="url(#_clip2)">
                    <path d="M726.786,725.713C749.399,725.713 766.529,746.118 762.622,768.392L691.775,1171.91C688.717,1189.33 673.601,1202.02 655.938,1202.02L547.239,1202.02C529.576,1202.02 514.461,1189.31 511.403,1171.91L440.556,768.392C436.625,746.118 453.779,725.713 476.392,725.713L726.786,725.713ZM979.815,725.713C1003.71,725.713 1021.13,748.399 1014.97,771.497L907.317,1175.02C903.07,1190.93 888.658,1202.02 872.159,1202.02L772.972,1202.02C750.359,1202.02 733.23,1181.62 737.136,1159.34L807.984,755.823C811.041,738.402 826.157,725.713 843.82,725.713L979.815,725.713ZM359.37,725.697C377.034,725.697 392.15,738.411 395.207,755.808L466.055,1159.33C469.985,1181.6 452.832,1202 430.219,1202L331.031,1202C314.557,1202 300.12,1190.94 295.874,1175L188.219,771.481C182.056,748.359 199.453,725.697 223.376,725.697L359.37,725.697Z" style="fill:url(#_Linear3);fill-rule:nonzero;"/>
                    <path d="M1064.66,479.422L138.514,479.422C111.714,479.422 89.988,501.148 89.988,527.948L89.988,623.787C89.988,650.587 111.714,672.313 138.514,672.313L1064.66,672.313C1091.46,672.313 1113.18,650.587 1113.18,623.787L1113.18,527.948C1113.18,501.148 1091.46,479.422 1064.66,479.422Z" style="fill:url(#_Linear4);fill-rule:nonzero;"/>
                    <path d="M259.249,435.761L943.902,435.761C970.713,435.761 992.428,414.046 992.428,387.235L992.428,273.199C992.428,261.965 988.522,251.338 981.753,242.87L259.249,242.87C232.438,242.87 210.723,264.586 210.723,291.396L210.723,387.235C210.723,414.046 232.438,435.761 259.249,435.761Z" style="fill:url(#_Linear5);fill-rule:nonzero;"/>
                    <path d="M965.167,229.563L498.565,2L435.287,131.759C423.544,155.852 433.54,184.895 457.633,196.638L552.429,242.859L981.763,242.859C977.371,237.351 971.742,232.766 965.191,229.563L965.167,229.563Z" style="fill:url(#_Linear6);fill-rule:nonzero;"/>
                </g>
            </g>
        </g>
    </g>
    <defs>
        <linearGradient id="_Linear3" x1="0" y1="0" x2="1" y2="0" gradientUnits="userSpaceOnUse" gradientTransform="matrix(80.066,727.886,-727.886,80.066,758.411,475.154)"><stop offset="0" style="stop-color:rgb(119,106,131);stop-opacity:1"/><stop offset="0.55" style="stop-color:rgb(49,41,56);stop-opacity:1"/><stop offset="1" style="stop-color:rgb(25,21,29);stop-opacity:1"/></linearGradient>
        <linearGradient id="_Linear4" x1="0" y1="0" x2="1" y2="0" gradientUnits="userSpaceOnUse" gradientTransform="matrix(-0.349,197.811,-197.811,-0.349,622.224,474.535)"><stop offset="0" style="stop-color:rgb(97,197,255);stop-opacity:1"/><stop offset="1" style="stop-color:rgb(42,146,250);stop-opacity:1"/></linearGradient>
        <linearGradient id="_Linear5" x1="0" y1="0" x2="1" y2="0" gradientUnits="userSpaceOnUse" gradientTransform="matrix(10.098,95.195,-95.195,10.098,124.39,309.152)"><stop offset="0" style="stop-color:rgb(255,196,20);stop-opacity:1"/><stop offset="1" style="stop-color:rgb(255,178,71);stop-opacity:1"/></linearGradient>
        <linearGradient id="_Linear6" x1="0" y1="0" x2="1" y2="0" gradientUnits="userSpaceOnUse" gradientTransform="matrix(-69.1,233.513,-233.513,-69.1,373.992,-30)"><stop offset="0" style="stop-color:rgb(255,125,56);stop-opacity:1"/><stop offset="0.61" style="stop-color:rgb(254,100,18);stop-opacity:1"/><stop offset="1" style="stop-color:rgb(242,84,0);stop-opacity:1"/></linearGradient>
    </defs>
</svg>
